<?xml version="1.0" standalone="no"?>
<!DOCTYPE svg PUBLIC "-//W3C//DTD SVG 20010904//EN"
 "http://www.w3.org/TR/2001/REC-SVG-20010904/DTD/svg10.dtd">
<svg version="1.0" xmlns="http://www.w3.org/2000/svg"
 width="409.000000pt" height="409.000000pt" viewBox="0 0 409.000000 409.000000"
 preserveAspectRatio="xMidYMid meet">
<metadata>
Created by potrace 1.14, written by Peter Selinger 2001-2017
</metadata>
<g transform="translate(0.000000,409.000000) scale(0.100000,-0.100000)"
fill="#000000" stroke="none">
<path d="M2172 4061 c-7 -16 -29 -42 -49 -57 -36 -28 -141 -68 -203 -78 -237
-38 -331 -76 -389 -156 l-30 -42 -16 37 c-8 21 -15 40 -15 42 0 16 -79 109
-118 138 -52 41 -65 44 -53 13 4 -13 11 -36 15 -51 l7 -28 -28 18 c-26 18 -27
18 -19 -2 17 -43 33 -156 31 -218 -2 -79 -17 -106 -119 -207 l-76 -74 -1 39
c0 22 -2 48 -4 58 -6 34 -54 123 -79 146 l-24 22 6 -48 c4 -42 3 -46 -10 -35
-14 11 -15 4 -15 -55 0 -59 -5 -78 -37 -141 -20 -40 -43 -75 -51 -78 -10 -4
-151 81 -175 106 -3 3 -111 76 -241 162 -267 178 -371 238 -413 238 -27 0 -28
-1 -23 -37 13 -79 132 -217 347 -403 112 -98 226 -198 289 -257 25 -23 49 -43
52 -43 4 0 -6 -39 -21 -86 -15 -48 -26 -102 -24 -120 1 -19 -1 -34 -5 -34 -15
0 -86 56 -118 94 -18 20 -33 33 -34 29 -4 -39 -12 -69 -20 -73 -15 -10 -20
-157 -7 -208 15 -64 51 -123 100 -168 l41 -37 -75 6 c-41 3 -87 11 -103 17
-15 6 -30 9 -32 7 -2 -3 19 -25 48 -51 54 -49 50 -54 -24 -32 -26 8 -47 10
-47 5 0 -13 128 -116 180 -145 53 -30 179 -74 212 -74 44 0 48 -10 32 -85 -20
-95 -20 -179 0 -210 15 -23 14 -28 -28 -112 -46 -93 -138 -321 -176 -437 -13
-38 -34 -80 -47 -92 -13 -12 -36 -51 -50 -85 -24 -58 -27 -76 -27 -194 0 -146
14 -214 45 -222 11 -3 29 -25 40 -49 27 -57 77 -106 136 -135 26 -13 54 -29
62 -36 39 -39 106 -56 148 -38 10 5 43 9 73 10 30 1 69 9 86 18 30 15 75 65
103 112 l12 20 -2 -20 c-4 -54 3 -78 27 -100 30 -28 82 -33 131 -14 15 6 64
15 109 19 143 14 197 58 238 196 24 80 27 171 8 223 -6 17 1 58 26 145 59 213
52 202 124 177 160 -55 231 -154 230 -325 0 -75 -4 -105 -28 -256 -32 -191
-173 -396 -384 -558 -47 -36 -89 -69 -95 -74 -5 -5 8 -6 30 -3 l40 6 -25 -23
c-14 -13 -37 -31 -50 -41 -25 -17 -25 -17 30 -12 154 15 431 87 659 171 105
39 322 142 359 171 120 93 151 129 197 228 38 80 91 256 100 330 10 82 18 66
11 -22 -6 -78 -32 -210 -54 -280 -6 -18 -9 -33 -6 -33 19 0 208 192 256 260
90 128 166 314 192 472 8 45 15 72 15 58 2 -34 12 -104 16 -108 6 -6 114 166
153 243 100 199 162 413 155 538 -4 64 -37 162 -84 243 l-30 54 23 0 c63 0
164 73 216 155 23 36 69 159 86 228 l7 28 -38 -24 c-48 -30 -63 -35 -121 -43
l-47 -6 43 43 c23 24 62 81 85 126 31 61 49 85 69 92 14 5 28 7 31 5 2 -3 15
-7 27 -9 13 -2 30 -11 39 -18 9 -8 22 -17 28 -21 21 -12 -4 44 -39 87 l-30 39
33 -17 c19 -10 42 -25 53 -34 18 -15 18 -15 11 9 -14 49 -57 99 -104 122 -36
17 -64 22 -131 23 -47 0 -106 -3 -131 -8 -26 -4 -57 -3 -70 2 -23 9 -23 10 6
11 36 1 105 31 124 54 13 15 12 16 -14 6 -67 -25 -171 20 -265 115 -36 36 -80
75 -97 86 l-33 21 26 44 c14 24 23 44 20 44 -3 0 1 17 9 38 18 44 34 129 27
137 -3 3 -15 -4 -28 -16 -42 -40 -152 -55 -249 -35 -16 3 -46 9 -65 12 -19 3
-69 17 -110 31 -41 13 -99 25 -127 26 -29 1 -53 3 -53 5 0 2 13 41 30 88 28
79 28 103 1 70 -20 -24 -94 -44 -168 -44 -82 0 -173 16 -293 53 -84 25 -157
34 -179 21 -15 -10 -14 -2 10 92 23 92 24 145 1 93z m1226 -997 c49 -10 26
-24 -50 -31 -89 -7 -143 22 -73 40 22 6 70 2 123 -9z"/>
</g>
</svg>
